<svg id="mail" xmlns="http://www.w3.org/2000/svg" width="11.862" height="8.341" viewBox="0 0 11.862 8.341">
  <g id="Group_204" data-name="Group 204" transform="translate(8.16 0.596)">
    <g id="Group_203" data-name="Group 203">
      <path id="Path_208" data-name="Path 208" d="M355.809,101.721l-3.6,3.574,3.6,3.574a1.031,1.031,0,0,0,.1-.447v-6.256A1.03,1.03,0,0,0,355.809,101.721Z" transform="translate(-352.211 -101.721)" fill="#3157be"/>
    </g>
  </g>
  <g id="Group_206" data-name="Group 206" transform="translate(0.596 0)">
    <g id="Group_205" data-name="Group 205">
      <path id="Path_209" data-name="Path 209" d="M35.945,76H26.168a1.03,1.03,0,0,0-.447.1l4.6,4.575a1.043,1.043,0,0,0,1.474,0l4.6-4.575A1.03,1.03,0,0,0,35.945,76Z" transform="translate(-25.721 -76)" fill="#3157be"/>
    </g>
  </g>
  <g id="Group_208" data-name="Group 208" transform="translate(0 0.596)">
    <g id="Group_207" data-name="Group 207">
      <path id="Path_210" data-name="Path 210" d="M.1,101.721a1.03,1.03,0,0,0-.1.447v6.256a1.03,1.03,0,0,0,.1.447L3.7,105.3Z" transform="translate(0 -101.721)" fill="#3157be"/>
    </g>
  </g>
  <g id="Group_210" data-name="Group 210" transform="translate(0.596 4.662)">
    <g id="Group_209" data-name="Group 209">
      <path id="Path_211" data-name="Path 211" d="M32.794,277.211l-.509.509a1.739,1.739,0,0,1-2.457,0l-.509-.509-3.6,3.574a1.03,1.03,0,0,0,.447.1h9.777a1.03,1.03,0,0,0,.447-.1Z" transform="translate(-25.721 -277.211)" fill="#3157be"/>
    </g>
  </g>
</svg>
